# xmcd
#
# Track frame offsets:
#	150
#	14892
#	35334
#	52169
#	78823
#	109616
#	142915
#	165287
#
# Disc length: 2604 seconds
#
# Revision: 0
# Processed by: cddbd v1.5.2PL0 Copyright (c) Steve Scherf et al.
# Submitted via: EZCDAudioConverter 3.1.7.1
#
DISCID=5c0a2a08
DTITLE=Frank Cottrell Boyce - Cosmic
DYEAR=2009
DGENRE=Books and Spoken
TTITLE0=Disc 6 Track 1
TTITLE1=Disc 6 Track 2
TTITLE2=Disc 6 Track 3
TTITLE3=Disc 6 Track 4
TTITLE4=Disc 6 Track 5
TTITLE5=Disc 6 Track 6
TTITLE6=Disc 6 Track 7
TTITLE7=Disc 6 Track 8
EXTD=
EXTT0=
EXTT1=
EXTT2=
EXTT3=
EXTT4=
EXTT5=
EXTT6=
EXTT7=
PLAYORDER=
